<svg width="48" height="48" viewBox="0 0 48 48" fill="none" xmlns="http://www.w3.org/2000/svg">
<g clip-path="url(#clip0_23_159)">
<rect width="48" height="48" rx="24" fill="#F9D61F"/>
<path d="M10 26H33.72L26.46 34.72C26.2919 34.9222 26.1653 35.1556 26.0874 35.4068C26.0095 35.6579 25.9818 35.922 26.006 36.1839C26.0547 36.7127 26.3116 37.2005 26.72 37.54C27.1284 37.8795 27.655 38.0428 28.1838 37.994C28.7127 37.9453 29.2005 37.6884 29.54 37.28L39.54 25.28C39.6073 25.1846 39.6674 25.0843 39.72 24.98C39.72 24.88 39.82 24.82 39.86 24.72C39.9507 24.4907 39.9981 24.2466 40 24C39.9981 23.7534 39.9507 23.5093 39.86 23.28C39.86 23.18 39.76 23.12 39.72 23.02C39.6674 22.9157 39.6073 22.8155 39.54 22.72L29.54 10.72C29.352 10.4942 29.1165 10.3127 28.8503 10.1882C28.5841 10.0638 28.2938 9.99953 28 10C27.5327 9.99909 27.0798 10.1618 26.72 10.46C26.5175 10.6279 26.3501 10.8341 26.2274 11.0668C26.1047 11.2995 26.0291 11.5541 26.0049 11.8161C25.9808 12.078 26.0085 12.3422 26.0866 12.5934C26.1647 12.8446 26.2916 13.0779 26.46 13.28L33.72 22H10C9.46957 22 8.96086 22.2107 8.58579 22.5858C8.21071 22.9609 8 23.4696 8 24C8 24.5304 8.21071 25.0391 8.58579 25.4142C8.96086 25.7893 9.46957 26 10 26Z" fill="black"/>
</g>
<defs>
<clipPath id="clip0_23_159">
<rect width="48" height="48" rx="24" fill="white"/>
</clipPath>
</defs>
</svg>
