<svg width="48" height="48" viewBox="0 0 48 48" fill="none" xmlns="http://www.w3.org/2000/svg">
<g clip-path="url(#clip0_23_154)">
<rect width="48" height="48" rx="24" transform="matrix(-1 0 0 1 48 0)" fill="#F9D61F"/>
<path d="M38 26H14.28L21.54 34.72C21.7081 34.9222 21.8347 35.1556 21.9126 35.4068C21.9905 35.6579 22.0182 35.922 21.9941 36.1839C21.9453 36.7127 21.6884 37.2005 21.28 37.54C20.8716 37.8795 20.345 38.0428 19.8162 37.994C19.2873 37.9453 18.7995 37.6884 18.46 37.28L8.46001 25.28C8.39273 25.1846 8.33257 25.0843 8.28001 24.98C8.28001 24.88 8.18001 24.82 8.14001 24.72C8.04936 24.4907 8.00189 24.2466 8.00001 24C8.00189 23.7534 8.04936 23.5093 8.14001 23.28C8.14001 23.18 8.24001 23.12 8.28001 23.02C8.33257 22.9157 8.39273 22.8155 8.46001 22.72L18.46 10.72C18.6481 10.4942 18.8835 10.3127 19.1497 10.1882C19.4159 10.0638 19.7062 9.99953 20 10C20.4673 9.99909 20.9202 10.1618 21.28 10.46C21.4825 10.6279 21.6499 10.8341 21.7726 11.0668C21.8953 11.2995 21.9709 11.5541 21.9951 11.8161C22.0192 12.078 21.9915 12.3422 21.9134 12.5934C21.8353 12.8446 21.7084 13.0779 21.54 13.28L14.28 22H38C38.5304 22 39.0392 22.2107 39.4142 22.5858C39.7893 22.9609 40 23.4696 40 24C40 24.5304 39.7893 25.0391 39.4142 25.4142C39.0392 25.7893 38.5304 26 38 26Z" fill="black"/>
</g>
<defs>
<clipPath id="clip0_23_154">
<rect width="48" height="48" rx="24" transform="matrix(-1 0 0 1 48 0)" fill="white"/>
</clipPath>
</defs>
</svg>
