<svg width="24" height="24" viewBox="0 0 24 24" fill="none" xmlns="http://www.w3.org/2000/svg">
<path d="M20.0004 20L15.9504 15.95M15.9504 15.95C16.6004 15.2999 17.116 14.5282 17.4678 13.6789C17.8196 12.8296 18.0007 11.9193 18.0007 11C18.0007 10.0807 17.8196 9.17039 17.4678 8.32107C17.116 7.47175 16.6004 6.70003 15.9504 6.04999C15.3003 5.39995 14.5286 4.8843 13.6793 4.5325C12.83 4.1807 11.9197 3.99963 11.0004 3.99963C10.0811 3.99963 9.17076 4.1807 8.32144 4.5325C7.47211 4.8843 6.7004 5.39995 6.05036 6.04999C4.73754 7.36281 4 9.14338 4 11C4 12.8566 4.73754 14.6372 6.05036 15.95C7.36318 17.2628 9.14375 18.0003 11.0004 18.0003C12.857 18.0003 14.6375 17.2628 15.9504 15.95Z" stroke="black" stroke-width="2" stroke-linecap="round" stroke-linejoin="round"/>
</svg>
