<svg width="64" height="64" viewBox="0 0 64 64" fill="none" xmlns="http://www.w3.org/2000/svg">
<path d="M32.0071 15.5912C22.9265 15.5912 15.602 22.9173 15.602 32C15.602 41.0827 22.9265 48.4088 32.0071 48.4088C41.0878 48.4088 48.4123 41.0827 48.4123 32C48.4123 22.9173 41.0878 15.5912 32.0071 15.5912ZM32.0071 42.6679C26.139 42.6679 21.3417 37.8837 21.3417 32C21.3417 26.1163 26.1247 21.3321 32.0071 21.3321C37.8896 21.3321 42.6726 26.1163 42.6726 32C42.6726 37.8837 37.8753 42.6679 32.0071 42.6679ZM52.9098 14.92C52.9098 17.0479 51.1964 18.7473 49.0833 18.7473C46.9559 18.7473 45.2569 17.0336 45.2569 14.92C45.2569 12.8064 46.9702 11.0927 49.0833 11.0927C51.1964 11.0927 52.9098 12.8064 52.9098 14.92ZM63.7751 18.8044C63.5324 13.6776 62.3616 9.13623 58.6066 5.39462C54.8658 1.65302 50.3255 0.481981 45.1998 0.224925C39.917 -0.0749749 24.083 -0.0749749 18.8002 0.224925C13.6888 0.467701 9.14847 1.63874 5.39342 5.38034C1.63837 9.12195 0.481874 13.6633 0.224875 18.7901C-0.0749582 24.0741 -0.0749582 39.9116 0.224875 45.1956C0.467596 50.3224 1.63837 54.8638 5.39342 58.6054C9.14847 62.347 13.6745 63.518 18.8002 63.7751C24.083 64.075 39.917 64.075 45.1998 63.7751C50.3255 63.5323 54.8658 62.3613 58.6066 58.6054C62.3474 54.8638 63.5181 50.3224 63.7751 45.1956C64.075 39.9116 64.075 24.0884 63.7751 18.8044ZM56.9504 50.8651C55.8367 53.6642 53.6808 55.8206 50.868 56.9488C46.6561 58.6197 36.6617 58.2341 32.0071 58.2341C27.3526 58.2341 17.3439 58.6054 13.1462 56.9488C10.3478 55.8349 8.19186 53.6785 7.06392 50.8651C5.39342 46.6522 5.77892 36.6556 5.77892 32C5.77892 27.3444 5.4077 17.3335 7.06392 13.1349C8.17758 10.3358 10.3335 8.1794 13.1462 7.05121C17.3582 5.38034 27.3526 5.76593 32.0071 5.76593C36.6617 5.76593 46.6704 5.39462 50.868 7.05121C53.6665 8.16512 55.8224 10.3215 56.9504 13.1349C58.6209 17.3478 58.2354 27.3444 58.2354 32C58.2354 36.6556 58.6209 46.6665 56.9504 50.8651Z" fill="black"/>
</svg>
