<svg width="24" height="24" viewBox="0 0 24 24" fill="none" xmlns="http://www.w3.org/2000/svg">
<path d="M8.00066 16.2099L8.00066 7.78995C8.00018 7.45753 8.09385 7.13178 8.27082 6.85039C8.44779 6.56901 8.70084 6.34349 9.00066 6.19995C9.3564 6.03191 9.75219 5.9672 10.1429 6.01316C10.5337 6.05913 10.9036 6.21394 11.2107 6.45995L16.3107 10.6699C16.5013 10.8352 16.6542 11.0394 16.759 11.2689C16.8637 11.4984 16.918 11.7477 16.918 11.9999C16.918 12.2522 16.8637 12.5015 16.759 12.731C16.6542 12.9605 16.5013 13.1647 16.3107 13.3299L11.2107 17.5399C10.9036 17.786 10.5337 17.9408 10.1429 17.9867C9.75219 18.0327 9.3564 17.968 9.00066 17.7999C8.70084 17.6564 8.44779 17.4309 8.27082 17.1495C8.09385 16.8681 8.00018 16.5424 8.00066 16.2099Z" fill="black"/>
</svg>
