<svg width="24" height="24" viewBox="0 0 24 24" fill="none" xmlns="http://www.w3.org/2000/svg">
<path d="M13 3.5C13 3.10218 12.842 2.72064 12.5607 2.43934C12.2794 2.15804 11.8978 2 11.5 2C11.1022 2 10.7206 2.15804 10.4393 2.43934C10.158 2.72064 10 3.10218 10 3.5V10H3.5C3.10218 10 2.72064 10.158 2.43934 10.4393C2.15804 10.7206 2 11.1022 2 11.5C2 11.8978 2.15804 12.2794 2.43934 12.5607C2.72064 12.842 3.10218 13 3.5 13H10V19.5C10 19.8978 10.158 20.2794 10.4393 20.5607C10.7206 20.842 11.1022 21 11.5 21C11.8978 21 12.2794 20.842 12.5607 20.5607C12.842 20.2794 13 19.8978 13 19.5V13H19.5C19.8978 13 20.2794 12.842 20.5607 12.5607C20.842 12.2794 21 11.8978 21 11.5C21 11.1022 20.842 10.7206 20.5607 10.4393C20.2794 10.158 19.8978 10 19.5 10H13V3.5Z" fill="black"/>
</svg>
