<svg width="30" height="30" viewBox="0 0 30 30" fill="none" xmlns="http://www.w3.org/2000/svg">
<path d="M28.3333 28.3333L21.5833 21.5833M21.5833 21.5833C22.6667 20.4999 23.5261 19.2137 24.1124 17.7982C24.6988 16.3827 25.0005 14.8655 25.0005 13.3333C25.0005 11.8012 24.6988 10.284 24.1124 8.86847C23.5261 7.45293 22.6667 6.16674 21.5833 5.08334C20.4999 3.99993 19.2137 3.14053 17.7981 2.55419C16.3826 1.96786 14.8654 1.66608 13.3333 1.66608C11.8011 1.66608 10.2839 1.96786 8.86841 2.55419C7.45287 3.14053 6.16668 3.99993 5.08328 5.08334C2.89524 7.27137 1.66602 10.239 1.66602 13.3333C1.66602 16.4277 2.89524 19.3953 5.08328 21.5833C7.27131 23.7714 10.2389 25.0006 13.3333 25.0006C16.4276 25.0006 19.3952 23.7714 21.5833 21.5833Z" stroke="white" stroke-width="2" stroke-linecap="round" stroke-linejoin="round"/>
</svg>
