<svg width="24" height="24" viewBox="0 0 24 24" fill="none" xmlns="http://www.w3.org/2000/svg">
<path d="M15.9993 7.79005V16.2101C15.9998 16.5425 15.9062 16.8682 15.7292 17.1496C15.5522 17.431 15.2992 17.6565 14.9993 17.8001C14.6436 17.9681 14.2478 18.0328 13.8571 17.9868C13.4663 17.9409 13.0964 17.7861 12.7893 17.5401L7.68934 13.3301C7.49871 13.1648 7.34582 12.9606 7.24104 12.7311C7.13626 12.5016 7.08203 12.2523 7.08203 12.0001C7.08203 11.7478 7.13626 11.4985 7.24104 11.269C7.34582 11.0395 7.49871 10.8353 7.68934 10.6701L12.7893 6.46005C13.0964 6.21405 13.4663 6.05924 13.8571 6.01327C14.2478 5.9673 14.6436 6.03202 14.9993 6.20005C15.2992 6.34359 15.5522 6.56911 15.7292 6.8505C15.9062 7.13189 15.9998 7.45764 15.9993 7.79005Z" fill="black"/>
</svg>
