<svg width="32" height="32" viewBox="0 0 32 32" fill="none" xmlns="http://www.w3.org/2000/svg">
<rect width="32" height="32" rx="16" fill="#F24E1E"/>
<path d="M20.72 25.64L17.94 22.86C17.26 23.0467 16.5667 23.14 15.86 23.14C14.5667 23.14 13.3867 22.84 12.32 22.24C11.2533 21.6267 10.4067 20.78 9.78 19.7C9.16667 18.6067 8.86 17.38 8.86 16.02C8.86 14.66 9.16667 13.44 9.78 12.36C10.4067 11.2667 11.2533 10.42 12.32 9.82C13.3867 9.20667 14.5667 8.9 15.86 8.9C17.1667 8.9 18.3533 9.20667 19.42 9.82C20.4867 10.42 21.3267 11.26 21.94 12.34C22.5533 13.42 22.86 14.6467 22.86 16.02C22.86 17.3533 22.5667 18.5533 21.98 19.62C21.3933 20.6867 20.5867 21.5267 19.56 22.14L23.08 25.64H20.72ZM10.72 16.02C10.72 17.1267 10.94 18.1 11.38 18.94C11.8333 19.78 12.4467 20.4267 13.22 20.88C14.0067 21.3333 14.8867 21.56 15.86 21.56C16.8333 21.56 17.7067 21.3333 18.48 20.88C19.2667 20.4267 19.88 19.78 20.32 18.94C20.7733 18.1 21 17.1267 21 16.02C21 14.9 20.7733 13.9267 20.32 13.1C19.88 12.26 19.2733 11.6133 18.5 11.16C17.7267 10.7067 16.8467 10.48 15.86 10.48C14.8733 10.48 13.9933 10.7067 13.22 11.16C12.4467 11.6133 11.8333 12.26 11.38 13.1C10.94 13.9267 10.72 14.9 10.72 16.02Z" fill="white"/>
</svg>
