<svg width="449" height="320" viewBox="0 0 449 320" fill="none" xmlns="http://www.w3.org/2000/svg">
<g clip-path="url(#clip0_4037_199)">
<path d="M243.811 47.6922C246.282 47.6922 248.294 45.6801 248.294 43.209V12.2143C248.294 5.47172 242.822 0 236.08 0H211.369C204.626 0 199.154 5.47172 199.154 12.2143V43.209C199.154 45.6801 201.166 47.6922 203.638 47.6922C206.109 47.6922 208.121 45.6801 208.121 43.209V12.2143C208.121 10.4139 209.604 8.93126 211.404 8.93126H236.115C237.915 8.93126 239.398 10.4139 239.398 12.2143V43.209C239.327 45.7154 241.34 47.6922 243.811 47.6922Z" fill="#FFDF88"/>
<path d="M0.689453 64.3545C0.689453 66.8256 2.70164 68.8378 5.17274 68.8378H443.864C446.335 68.8378 448.347 66.8256 448.347 64.3545C448.347 61.8834 446.335 59.8712 443.864 59.8712H5.17274C2.70164 59.9065 0.689453 61.9187 0.689453 64.3545Z" fill="#FFDF88"/>
</g>
<g clip-path="url(#clip1_4037_199)">
<path d="M225.736 319.655C256.943 319.655 285.501 316.019 310.565 308.817C312.931 308.146 314.307 305.675 313.637 303.275C312.966 300.91 310.495 299.533 308.094 300.204C283.807 307.158 256.095 310.688 225.701 310.688C194.106 310.688 165.406 307.158 140.448 300.204C138.118 299.568 135.647 300.945 135.011 303.345C134.341 305.711 135.717 308.182 138.118 308.852C163.817 316.019 193.329 319.655 225.736 319.655Z" fill="#FFDF88"/>
</g>
<defs>
<clipPath id="clip0_4037_199">
<rect width="447.622" height="68.8378" fill="white" transform="translate(0.689453)"/>
</clipPath>
<clipPath id="clip1_4037_199">
<rect width="178.978" height="19.5923" fill="white" transform="translate(134.834 300.062)"/>
</clipPath>
</defs>
</svg>
