<svg width="250" height="220" viewBox="0 0 250 220" fill="none" xmlns="http://www.w3.org/2000/svg">
<g clip-path="url(#clip0_4204_178)">
<path d="M135.745 26.539C137.12 26.539 138.24 25.4193 138.24 24.0442V6.79682C138.24 3.04482 135.195 0 131.443 0H117.692C113.94 0 110.896 3.04482 110.896 6.79682V24.0442C110.896 25.4193 112.015 26.539 113.39 26.539C114.765 26.539 115.885 25.4193 115.885 24.0442V6.79682C115.885 5.79497 116.71 4.96993 117.712 4.96993H131.463C132.465 4.96993 133.29 5.79497 133.29 6.79682V24.0442C133.25 25.439 134.37 26.539 135.745 26.539Z" fill="#AB9067"/>
<path d="M0.457153 35.8109C0.457153 37.186 1.57686 38.3057 2.95194 38.3057H247.068C248.443 38.3057 249.562 37.186 249.562 35.8109C249.562 34.4359 248.443 33.3162 247.068 33.3162H2.95194C1.57686 33.3358 0.457153 34.4555 0.457153 35.8109Z" fill="#AB9067"/>
</g>
<g clip-path="url(#clip1_4204_178)">
<path d="M125.607 219.876C142.972 219.876 158.864 217.853 172.811 213.845C174.127 213.472 174.893 212.097 174.52 210.761C174.147 209.445 172.772 208.679 171.436 209.052C157.921 212.922 142.5 214.886 125.587 214.886C108.006 214.886 92.0351 212.922 78.1468 209.052C76.8503 208.699 75.4752 209.465 75.1216 210.801C74.7484 212.117 75.5145 213.492 76.8503 213.865C91.1511 217.853 107.573 219.876 125.607 219.876Z" fill="#AB9067"/>
</g>
<defs>
<clipPath id="clip0_4204_178">
<rect width="249.086" height="38.3058" fill="white" transform="translate(0.457153)"/>
</clipPath>
<clipPath id="clip1_4204_178">
<rect width="99.595" height="10.9024" fill="white" transform="translate(75.0233 208.974)"/>
</clipPath>
</defs>
</svg>
